<?xml version="1.0" encoding="UTF-8"?>
<svg version="1.1" viewBox="0 0 2048 1362" width="1280" height="1280" xmlns="http://www.w3.org/2000/svg">
<path transform="translate(0)" d="m0 0h2048v1362h-2048z" fill="#FE1B0D"/>
<path transform="translate(0)" d="m0 0h2048v1362h-2048zm223 188-79 1-1 3v973l1 1 335 1 152-1h1262l4-4 1-27v-916l-1-30-1-1z" fill="#060202"/>
<path transform="translate(223,188)" d="m0 0h1673l1 1 1 30v916l-1 27-4 4h-1262l-170 1-317-1-1-1v-973l1-3zm-58 26-1 1v747l39 1h1341l9 1 1 8-22 1h-1284l-84 1-1 72 1 94 3 1 447 1h1144l118-1 2-1v-166l-3-1h-184l-8-1-1-1 1-8h194l1-1-1-748z" fill="#FEED02"/>
<path transform="translate(1604,249)" d="m0 0h37l14 2 19 6 16 8 12 8 14 12 10 11 10 15 6 12 7 20 4 19 2 17v13l-3 23-5 18-8 20-8 15-7 10-12 14-15 13-16 9-20 7-20 3h-29l-19-3-15-5-21-10-11-7-13-11-9-9-10-13-10-18-7-17-4-14-3-2h-648l-1 1v32l-1 4h-32l-1 54-1 1h-20l-7-1-2-3v-37l-1-7-2-1h-26l-1 2-1 28-1 5-2 1-23-1-7-1-1-9v-38l1-28-37-1v-26l1-36 816-1 1-1 2-13 6-18 8-15 10-14 12-12 13-10 18-10 18-7 14-3z" fill="#050202"/>
<path transform="translate(477,397)" d="m0 0h11l4 9 12 48 18 73 18 71 19 77 32 128 10 41 5 22 1 3 38 1 1 43v17l-2 3h-158l-1-1v-61l1-1h26l12 1-16-64-7-25-1-1h-70l-27-1-5 26-11 51-3 11h43l1 1v64l-6 1h-157l-1-1v-62l2-2h33l3-2 7-28 18-76 10-44 12-50 23-99 23-97 12-52 5-20 2-3z" fill="#FDFEFE"/>
<path transform="translate(784,540)" d="m0 0 6 1 6 5 8 13 14 23 15 24 17 29 13 21 17 28 10 17 15 25 14 23 15 25 3 3-1-17-1-47v-69l1-38-42 1-5-2-1-2v-58l2-2 164-1 2 3v55l-1 5-2 1-42 1v323l-1 3-28 1h-37l-7-2-8-11-17-29-13-22-18-30-26-44-33-55-10-17-12-20-7-9-2-1 1 4 1 52 1 118h43l1 29v37h-166l-2-7v-28l1-27 4-3 40 2v-265l-17 1h-26l-1-1-1-8 1-55 1-1z" fill="#FDFEFE"/>
<path transform="translate(0)" d="m0 0h2048v1362h-2048zm8 11-1 234v410l1 688h2029l1-123v-1208l-68-1z" fill="#FDFEFE"/>
<path transform="translate(1238,541)" d="m0 0h11l2 1 1 25-1 38-1 1-43 1v193l3 16 4 12 7 13 11 12 8 6 8 4 14 3h13l15-3 12-6 9-7 8-9 8-13 5-12 2-10v-201l-39 1-3-1-1-2v-59l1-1 60-1 104-1 3 2v60l-1 2-43 1v157l-1 26-3 24-6 27-8 24-12 23-12 16-13 13-14 10-15 7-22 7-16 3-15 1h-22l-21-2-21-6-17-7-14-9-14-12-11-14-10-17-8-20-6-20-5-26-2-19-1-42v-144h-42l-2-2v-60l2-1 35-1z" fill="#FDFEFE"/>
<path transform="translate(1486,541)" d="m0 0h95l28 1h40l43-1h84l1 1 1 62-1 1-51 1-20 2-10 4-12 11-8 13-4 16-2 14-1 17-1 217-2 35-4 30-5 24-6 19-6 15-12 23-9 12-9 10-10 10-15 10-21 10-22 8-27 6-7 1h-18l-16-4-14-7-7-6-8-11-5-11-3-12v-18l4-16 8-16 8-9 10-6 9-3h16l10 3 13 7 13 11 10 8h7l10-7 8-7 7-10 6-12 3-9 3-19 1-97v-202l-3-16-5-12-7-11-7-6-11-5-17-2-51-1-2-6v-59z" fill="#FDFEFE"/>
<path transform="translate(1614,306)" d="m0 0h25l17 5 14 8 10 9 8 8 9 14 5 11 3 15v22l-3 15-5 12-7 11-9 10-11 9-12 7-14 5-15 2h-13l-17-3-16-8-11-7-10-10-9-14-7-16-3-15v-20l4-16 8-16 7-10 11-11 14-9 15-6z" fill="#FDFEFE"/>
<path transform="translate(1606,241)" d="m0 0h33l19 3 17 5 14 6 13 8 14 11 10 9 11 14 11 21 7 19 6 26 2 18-1 21-5 24-7 21-8 18-8 13-9 11-7 8-8 7-10 8-13 8-18 7-15 4-12 2h-32l-23-5-19-7-16-8-13-9-14-12-12-14-10-16-7-14-6-15-3-10-77-1h-513l-48 1-1 3-1 32-1 1-30 1v48l-2 5-4 1h-37l-3-3-1-4-1-40-5-2h-9v13l-1 19-2 4-4 1h-33l-7-2-2-6-1-10v-14l2-47-35-1-1-5 1-70 1-1h816l3-15 8-19 8-14 9-12 12-12 15-11 16-9 19-8 20-4zm-2 8-19 3-15 5-16 8-10 6-9 7-10 9-9 10-10 16-6 13-5 17-1 9-1 1-816 1-1 36v26l37 1-1 28v38l1 9 22 2h8l2-1 1-5 1-28 1-2h26l2 1 1 7v37l2 3 7 1h20l1-1 1-54h32l1-5v-31l1-1h648l3 2 6 19 6 14 10 17 7 9 9 10 12 11 11 7 19 10 17 6 13 3 9 1h29l20-3 20-7 11-6 8-6 13-11 9-10 7-10 8-14 5-11 7-19 4-18 2-17v-13l-3-22-5-21-7-18-11-18-13-15-10-9-13-9-12-7-16-6-15-4-9-1z" fill="#FDFEFE"/>
<path transform="translate(163,223)" d="m0 0h1v739h1380l9 1 1 1v8l-3 1-19 1h-1368v-3l-2-3z" fill="#FFE600"/>
<path transform="translate(1699,1192)" d="m0 0h56v67l52-1 1 3h2l-1 65-1 1h-54l-1-1v-63l1-3h-53v66l-1 1h-53l-1-1v-66l1-1 52-1z" fill="#FDFEFE"/>
<path transform="translate(616,1191)" d="m0 0h25l29 1 1 5-1 62-1 1h-25l-27-1v22l-1 46h-54l-1-1-1-13v-47l1-6h-25l-29-1-1-17 1-50h54l1 1v66l53-1v-66z" fill="#FDFEFE"/>
<path transform="translate(1375,1191)" d="m0 0h26l28 1v68h-31l-22-1-1 67-1 1h-53l-1-2-1-12v-22l1-30-37-1-16-1-1-1v-65l1-1h53l1 1v66l47-1 5-1v-52l1-13z" fill="#FDFEFE"/>
<path transform="translate(1157,1192)" d="m0 0h55v67l-1 1h-32l-21-1 1 2v65l-1 1h-53l-2-3v-60l2-5 52-1-1-3v-59z" fill="#FDFEFE"/>
<path transform="translate(444,1191)" d="m0 0h9l1 1v53l-1 14-1 1h-52v66l-1 1h-53l-2-2v-63l2-3 52-1v-65l1-1z" fill="#FDFEFE"/>
<path transform="translate(1494,1191)" d="m0 0 44 1v67l53-1 2 4-1 65h-55l-1-5v-57l1-5-54-1-1-2v-56l1-9z" fill="#FDFDFD"/>
<path transform="translate(181,1192)" d="m0 0h56v51l-1 16-1 1h-52v66l-1 1h-53l-2-4v-43l1-19 2-2 51-1z" fill="#FDFEFE"/>
<path transform="translate(1754,28)" d="m0 0h55v65l-1 3h-53v66l-1 1h-53l-1-1-1-7v-57l2-2h52v-67z" fill="#FDFEFE"/>
<path transform="translate(940,1192)" d="m0 0h56v57l-1 11h-53v66l-1 1h-53l-1-1v-66l1-1 52-1z" fill="#FDFEFE"/>
<path transform="translate(724,1192)" d="m0 0h54l1 1v66l-1 1h-53v66l-1 1h-52l-2-3v-63l1-2 52-1v-63z" fill="#FDFEFD"/>
<path transform="translate(778,28)" d="m0 0h55v62l-1 6h-53v66l-1 1-27 1h-25l-2-4v-63l3-2h50v-66z" fill="#FDFEFE"/>
<path transform="translate(1104,28)" d="m0 0h54l1 2v57l-1 9h-53v66l-1 1-22 1h-31l-1-3v-64l2-1h52l-1-2v-65z" fill="#FDFEFE"/>
<path transform="translate(1320,28)" d="m0 0h54l1 1v65l-1 2h-52v66l-1 1-34 1h-19l-1-1-1-14v-50l2-3h52l-1-5v-27z" fill="#FDFEFE"/>
<path transform="translate(1537,28)" d="m0 0h55v67l-1 1h-53v67l-48 1-7-1v-66l1-1 52-1v-63z" fill="#FDFEFE"/>
<path transform="translate(561,28)" d="m0 0h55l1 2-1 64-1 2h-51l-2-1v68l-29 1h-25l-1-4v-61l1-3 52-1v-63z" fill="#FDFEFE"/>
<path transform="translate(995,28)" d="m0 0h54l1 1v50l-1 17-53 1v65l-1 1-27 1h-25l-2-1v-67h53v-66z" fill="#FDFEFE"/>
<path transform="translate(344,28)" d="m0 0h55v67l-1 1h-51l-1 26v40l-1 1-35 1h-16l-3-2v-65l1-1 52-1z" fill="#FDFEFE"/>
<path transform="translate(1621,342)" d="m0 0 11 1 11 4 9 6 8 9 7 14 2 7v11l-4 10-7 12-7 7-10 5-11 3h-13l-10-3-9-6-9-9-7-14-1-6v-14l4-12 6-8 4-5 14-9z" fill="#FE1B0D"/>
<path transform="translate(163,1046)" d="m0 0h1v94l450 1h1e3l105 1v1l-141 1h-161l-6 1-52 2h-117l-30-1h-83l-27-1-66 1-31-1-3-1h-158l-5 1-20 1h-23l-63-1h-2-6l-1-1h-77l-13 1h-155l-67 1-17 1-97 1h-46l-30-1h-22l-14 1h-23l-4-4z" fill="#FFE600"/>
<path transform="translate(340,206)" d="m0 0h134l40 1h159l27 2 11 2 11 1h538l302 1v1h-1359v-1l31-2 20-2 49-2z" fill="#FFE600"/>
<path transform="translate(30,575)" d="m0 0h42l2 2v64l-1 3-8 1h-38l-7-1-2-5v-30l1-33z" fill="#FDFEFE"/>
<path transform="translate(1916,1191)" d="m0 0h55l1 3-1 66-52-1-4-2v-64z" fill="#FDFEFE"/>
<path transform="translate(1043,1258)" d="m0 0h5l3 4-1 64-1 1h-53l-2-3v-57l1-7 1-1z" fill="#FDFEFE"/>
<path transform="translate(460,1020)" d="m0 0h42l3 1 1 2v11l-1 2h-41v22h40l1 1v15l-1 2-20 1h-20l1 25 41 1 1 2 1 13-1 2-4 1h-52l-2-2-1-7-1-31v-44l1-16z" fill="#FDFEFE"/>
<path transform="translate(1972,1259)" d="m0 0h54v67l-1 1h-54l-1-2v-64z" fill="#FDFEFE"/>
<path transform="translate(827,1258)" d="m0 0h5l1 2v66l-1 1h-54l-1-3v-60l1-4 2-1z" fill="#FDFEFE"/>
<path transform="translate(2e3 27)" d="m0 0h18l6 1v66l-1 1-25 1h-28l-2-1v-65l1-2z" fill="#FDFEFE"/>
<path transform="translate(1966,916)" d="m0 0h5l1 1v68l-1 1h-51l-3-2v-66l1-1z" fill="#FDFEFE"/>
<path transform="translate(1918,232)" d="m0 0h53l1 1v67l-1 1h-52l-2-1v-67z" fill="#FDFEFE"/>
<path transform="translate(128,28)" d="m0 0h54l1 2v58l-1 8h-49l-6-2v-65z" fill="#FDFEFE"/>
<path transform="translate(1863,28)" d="m0 0h54l1 6v56l-1 6h-49l-6-2v-64z" fill="#FDFEFE"/>
<path transform="translate(1927,506)" d="m0 0h44l1 1v67l-1 1h-53l-1-1v-66l1-1z" fill="#FDFEFE"/>
<path transform="translate(19,301)" d="m0 0h52l3 4v29l-1 36-1 1-52-1-2-6v-22z" fill="#FDFEFE"/>
<path transform="translate(31,27)" d="m0 0h37l6 2v46l-1 22h-27l-27-1v-62l1-6z" fill="#FDFEFE"/>
<path transform="translate(1984,1121)" d="m0 0h41l1 1v43l-1 24-1 1h-52l-2-3v-22l1-42 1-1z" fill="#FDFEFE"/>
<path transform="translate(1928,779)" d="m0 0h42l2 2v66l-1 1h-51l-3-1v-65l1-2z" fill="#FDFEFE"/>
<path transform="translate(1918,643)" d="m0 0h53l1 1v67l-25 1h-26l-4-2v-66z" fill="#FDFEFE"/>
<path transform="translate(1975,300)" d="m0 0h50l1 1v67l-1 1-10 1h-41l-2-1v-67z" fill="#FDFEFE"/>
<path transform="translate(31,985)" d="m0 0h22l18 1 2 1v68h-53l-1-1-1-8 1-60z" fill="#FDFEFE"/>
<path transform="translate(23,849)" d="m0 0h50l1 3-1 66h-51l-3-2-1-3v-29l1-34z" fill="#FDFEFE"/>
<path transform="translate(1918,369)" d="m0 0h52l2 1v67l-31 1h-21l-3-2v-66z" fill="#FDFEFE"/>
<path transform="translate(1920,1053)" d="m0 0h50l2 2v65l-1 1-31 1h-22l-1-1v-66z" fill="#FDFEFE"/>
<path transform="translate(75,917)" d="m0 0h51l1 2v64l-2 4h-51l-2-3 1-65z" fill="#FDFEFE"/>
<path transform="translate(887,28)" d="m0 0h54l1 7v55l-1 6h-52l-2-1-1-6v-25z" fill="#FDFEFE"/>
<path transform="translate(1050,1192)" d="m0 0h54l1 1v36l-1 31h-40l-14-1-1-1v-50z" fill="#FDFEFE"/>
<path transform="translate(284,1258)" d="m0 0 5 1 3 5-1 20-1 43h-53l-1-1-1-10v-46l1-10 1-1z" fill="#FDFEFE"/>
<path transform="translate(19,712)" d="m0 0h53l1 2v67h-46l-7-1-2-5v-21z" fill="#FDFEFE"/>
<path transform="translate(19,165)" d="m0 0h54v69h-53l-1-1-1-7z" fill="#FDFEFE"/>
<path transform="translate(1914,1258)" d="m0 0 3 1 1 2v65l-1 1h-53l-2-6v-48l1-13 2-1z" fill="#FDFEFE"/>
<path transform="translate(1974,711)" d="m0 0h51l1 1v66l-1 1-11 1h-42l-1-4v-20l1-44z" fill="#FDFEFE"/>
<path transform="translate(236,28)" d="m0 0h54v68h-53l-2-3v-57z" fill="#FDFEFE"/>
<path transform="translate(75,643)" d="m0 0h49l3 2v17l-1 50-2 1h-50l-2-3 1-65z" fill="#FDFEFE"/>
<path transform="translate(1917,96)" d="m0 0h54v67l-1 1h-52l-1-1-1-10v-55z" fill="#FDFEFE"/>
<path transform="translate(1260,1258)" d="m0 0 5 1 2 3-1 64-1 1h-52l-1-1-1-12v-38l1-16 1-1z" fill="#FDFEFE"/>
<path transform="translate(1213,28)" d="m0 0h52l1 1v66l-3 2-50-1-2-3v-46l1-18z" fill="#FDFEFE"/>
<path transform="translate(1647,28)" d="m0 0h53l1 13v28l-1 27h-53l-1-1-1-11v-16l1-39z" fill="#FDFEFE"/>
<path transform="translate(1973,985)" d="m0 0h53v67l-1 1-11 1h-41l-1-1v-67z" fill="#FDFEFE"/>
<path transform="translate(1158,96)" d="m0 0h53l1 1v66l-25 1h-28l-2-2v-65z" fill="#FDFEFE"/>
<path transform="translate(398,96)" d="m0 0h55v67l-35 1h-16l-4-1-1-19z" fill="#FDFEFE"/>
<path transform="translate(1592,1191)" d="m0 0h22l32 1v45l-1 23h-22l-29-1-3-1v-66z" fill="#FDFEFE"/>
<path transform="translate(1988,574)" d="m0 0h37l1 1v66l-3 2h-50l-1-1v-67z" fill="#FDFEFE"/>
<path transform="translate(497,1258)" d="m0 0h9l2 3v65l-1 1h-51l-2-2-1-21v-25l1-19 1-1z" fill="#FDFEFE"/>
<path transform="translate(26,1122)" d="m0 0h44l3 1v67l-1 1h-37l-16-1v-67z" fill="#FDFEFE"/>
<path transform="translate(20,439)" d="m0 0h53v67l-1 1h-50l-3-1-1-3v-31l1-32z" fill="#FDFEFE"/>
<path transform="translate(616,96)" d="m0 0h53l1 1v65l-1 1-52 1-2-1v-66z" fill="#FDFEFE"/>
<path transform="translate(1982,164)" d="m0 0h43l1 1v66l-1 1h-52l-1-1-1-29v-34l1-3z" fill="#FDFEFE"/>
<path transform="translate(182,96)" d="m0 0h54l1 6v60l-1 1h-54l-1-1v-65z" fill="#FDFEFE"/>
<path transform="translate(291,1192)" d="m0 0h54v67l-5 1-48-1-2-1v-65z" fill="#FDFEFE"/>
<path transform="translate(1374,96)" d="m0 0h54l1 1v65l-1 1h-54z" fill="#FDFEFE"/>
<path transform="translate(671,28)" d="m0 0h53l1 18-1 50-4 1-48-1-2-1v-66z" fill="#FDFEFE"/>
<path transform="translate(1989,848)" d="m0 0h36l1 1v65l-7 2h-46l-2-4v-36l1-26 1-1z" fill="#FDFEFE"/>
<path transform="translate(832,1192)" d="m0 0h54l1 1v32l-1 35h-31l-20-1-3-1z" fill="#FDFEFE"/>
<path transform="translate(70,1258)" d="m0 0 3 2 1 65-1 2h-53l-1-1v-67z" fill="#FDFEFE"/>
<path transform="translate(86,1191)" d="m0 0h42v68h-51l-3-1-1-22v-15l1-28 1-1z" fill="#FDFEFE"/>
<path transform="translate(455,28)" d="m0 0h52l1 4v34l-1 30-4 1-48-1-2-4v-32l1-31z" fill="#FDFEFE"/>
<path transform="translate(75,97)" d="m0 0h52v68h-53l-1-1v-66z" fill="#FDFEFE"/>
<path transform="translate(75,233)" d="m0 0h51v68l-1 1h-52l-1-2 1-65z" fill="#FDFEFE"/>
<path transform="translate(1476,1258)" d="m0 0h5l3 3-1 66h-52l-2-7v-55l2-6z" fill="#FDFEFE"/>
<path transform="translate(121,506)" d="m0 0 5 1 1 3-1 65-2 1h-49l-2-1v-67l1-1z" fill="#FDFEFE"/>
<path transform="translate(1430,28)" d="m0 0h52l1 1v66l-1 1h-52l-1-1v-58z" fill="#FDFEFE"/>
<path transform="translate(74,1054)" d="m0 0h51l1 1v67l-2 1h-50l-2-7 1-61z" fill="#FDFEFE"/>
<path transform="translate(74,370)" d="m0 0h51l1 1v67l-2 1h-50l-1-1v-67z" fill="#FDFEFE"/>
<path transform="translate(834,96)" d="m0 0h52l1 2v64l-1 1-32 1h-20l-2-5v-58z" fill="#FDFEFE"/>
<path transform="translate(2018,437)" d="m0 0h6l2 1v59l-1 7-1 1-47 1-5-2-1-2v-23l1-40 1-1z" fill="#FDFEFE"/>
<path transform="translate(1593,96)" d="m0 0h51l2 3v63l-1 1h-53l-1-2v-60z" fill="#FDFEFE"/>
<path transform="translate(1810,1191)" d="m0 0 52 1 1 13-1 54-2 1-49-1-3-2v-43l1-22z" fill="#FDFEFE"/>
<path transform="translate(75,781)" d="m0 0h50l2 4-1 64h-52l-1-1v-65z" fill="#FDFEFE"/>
<path transform="translate(542,1018)" d="m0 0h15l9 4 7 5 6 12 1 8-2 2h-10l-5-5-6-8-5-3h-8l-5 3-2 5v8l6 5 18 6 10 6 5 4 5 8 1 6v13l-2 9-6 8-9 6-7 2h-16l-10-4-7-7-5-10-2-6v-7l3-2h9l5 5 3 10 5 2 4 2h10l7-6 2-5-1-8-5-5-5-2-12-3-8-4-8-7-5-9-1-4v-13l6-12 8-7z" fill="#FDFEFE"/>
<path transform="translate(1811,96)" d="m0 0h51l1 65-2 2h-51l-1-1v-64z" fill="#FDFEFE"/>
<path transform="translate(449,571)" d="m0 0 3 1 4 14 15 56 9 35v5l-56-1 2-10 7-31 13-56z" fill="#FE1B0D"/>
<path transform="translate(356,965)" d="m0 0h224l40 1 19 1 8 3-4 2-427 1 1-2 11-2h16l18-2 19-1z" fill="#FFF702"/>
<path transform="translate(1649,245)" d="m0 0h13l18 6 16 8 14 10 11 10 5 4 11 14 11 21 7 19 6 26 2 18-1 21-5 24-7 21-8 18-8 13-3 1h-5l-14 15-2-1 11-12 7-10 8-14 5-11 7-19 4-18 2-17v-13l-3-22-5-21-7-18-11-18-13-15-14-12-20-12-16-6-15-4-17-2v-1l13-1z" fill="#F7FEFE"/>
<path transform="translate(383,1021)" d="m0 0h13v83h40v15l-3 1-27 1h-21l-3-2-1-4-1-44v-24l1-25z" fill="#FDFEFE"/>
<path transform="translate(288,1021)" d="m0 0h50l1 1v13l-1 1-22 1-1 4-1 77-3 2h-10l-1-4-2-80h-20l-3-5v-8l1-1z" fill="#FDFEFE"/>
<path transform="translate(1683,962)" d="m0 0h192v1l-10 1-7 3-27 2-6 2 19 1v1l-118 1h-35l-8-1-2-2 1-8z" fill="#FFE600"/>
<path transform="translate(350,1021)" d="m0 0h11l2 1v64l-1 33-10 2-4-2v-97z" fill="#FDFEFE"/>
<path transform="translate(846,432)" d="m0 0h1v26l-1 1-30 1v48l-2 5-9 1-11-1-1-5h-14l-3-3v-23h1l1 21 1 2 7 1h20l1-50 1-4 6-1 26 1 1-19 2 2h3z" fill="#F6FEFE"/>
<path transform="translate(1507,965)" d="m0 0h39l8 1v6h-137l-21-1-4-1v-2l-2-1 2-1z" fill="#FFF601"/>
<path transform="translate(1496,334)" d="m0 0h1l-2 18-2 2h-655v-1l587-1 17-2 13-2 30-1 7 1v-7z" fill="#F6FEFE"/>
<path transform="translate(1540,289)" d="m0 0 5 2-2 10-1 3 11 1 2 5v11l-7 8-4 2h-6l-3-2-1-3v-19l-1-4-2-2 4-8z" fill="#FCFEFE"/>
<path transform="translate(1598,277)" d="m0 0h8l1 1 1 19-3 3-13 4h-5l-1-2 1-18 3-3z" fill="#F7FEFE"/>
<path transform="translate(1576,461)" d="m0 0 7 1 3 4-2 6-6 7-2 9-8 9-9-6-3-4-1-9 4-8 6-2 1 5-2 9 2 9 1 1 5-16v-4l-1-5 3-5z" fill="#FCFEFE"/>
<path transform="translate(1668,271)" d="m0 0 9 2 2 1-1 5-6 9-6 16-2 2-9-2-1-6 10-22z" fill="#F7FEFE"/>
<path transform="translate(1721,327)" d="m0 0h6l3 4 1 7-6 4-8 4-4 1h-14l-2-3 2-7 13-4 6-5z" fill="#F7FEFE"/>
<path transform="translate(507,471)" d="m0 0 2 3 31 124-1 4-6-18-2-3-3-15-6-20-4-17-2-6-2-16-5-14-1-14z" fill="#F6FEFE"/>
<path transform="translate(553,659)" d="m0 0h2l28 112v6l-3-3-3-10-2-5-1-9-3-7-4-18-3-12-4-18-3-17-3-7z" fill="#F6FEFE"/>
<path transform="translate(1758,1141)" d="m0 0h95v1l-28 1-6 1-26 1-14 1-27-1-24-2v-1z" fill="#FFE600"/>
<path transform="translate(711,450)" d="m0 0h1l1 42 4 1 1 8h-9l-3-3-1-4v-19l2-6 4-1z" fill="#F6FEFE"/>
<path transform="translate(1568,286)" d="m0 0 4 1 4 3 1 7v9l-3 5-3 2-4-1-2-4v-20z" fill="#F7FEFE"/>
<path transform="translate(792,705)" d="m0 0h1v119h-1l-2-55-1-14v-17l1-3v-18z" fill="#F6FFFF"/>
<path transform="translate(1540,303)" d="m0 0 13 2 2 5v11l-3 2-10-1-1-3h-2v-10z" fill="#F7FEFE"/>
<path transform="translate(1702,305)" d="m0 0 7 1 1 1v7l-7 12-5-1-5-7 1-5 5-6z" fill="#F7FEFE"/>
<path transform="translate(1685,965)" d="m0 0h18l9 3 2 4-4 1h-27l-1-1v-5z" fill="#FFF601"/>
<path transform="translate(1667,481)" d="m0 0h6l1 1v5h-2l2 9v5l-5 3h-5l-2-4 3-17z" fill="#F7FEFE"/>
<path transform="translate(1678,514)" d="m0 0 4 1-14 6-15 4-13 4-13-1-20-3v-1l34-1 20-3z" fill="#F8FEFE"/>
<path transform="translate(1650,269)" d="m0 0 3 1-2 9-8 21-3 2-1-1v-11l5-17z" fill="#F7FEFE"/>
<path transform="translate(1613,482)" d="m0 0 4 1 2 2 1 4v8l-2 7-4 4-5-1-1-2v-10l2 1 1 4 1-5-1-6z" fill="#F8FEFE"/>
<path transform="translate(1620,276)" d="m0 0h9l-1 17-2 5h-6l-2-2v-9z" fill="#F6FEFE"/>
<path transform="translate(1571,250)" d="m0 0h6l6 2-2 2-20 8-9 5h-2v-6l16-9z" fill="#F6FEFE"/>
<path transform="translate(672,386)" d="m0 0h4l1 31-3 4-3-1-1-3v-12z" fill="#F6FEFE"/>
<path transform="translate(1686,461)" d="m0 0 2 1 1 3v31l-2 2-4-1 1-31z" fill="#F7FEFE"/>
<path transform="translate(1589,480)" d="m0 0 4 1 5 3 2 10-4 6h-4l-1-7-3-5v-6z" fill="#F8FEFE"/>
<path transform="translate(1633,483)" d="m0 0h3v22l-3 3-4-1-1-2v-7l4-14z" fill="#F8FEFE"/>
<path transform="translate(1688,288)" d="m0 0h2l-2 11-8 14-4-1 1-8 9-14z" fill="#F8FEFE"/>
<path transform="translate(1714,331)" d="m0 0 1 4-2 4-3 3-6-1-1 2h2l1 2 7 1v1h-14l-2-3 2-7 13-4z" fill="#FDFEFE"/>
<path transform="translate(1602,278)" d="m0 0h5l1 19-1 1h-7l-1-4 1-1v-14z" fill="#FDFEFE"/>
<path transform="translate(583,780)" d="m0 0h2l13 51v3h-2l-5-15-2-12-3-8-3-12z" fill="#F7FEFE"/>
<path transform="translate(1651,482)" d="m0 0 3 1v21l-1 1h-5l-1-1 1-13 2-8z" fill="#F7FEFE"/>
<path transform="translate(1541,310)" d="m0 0h7l2 1 1 6-2 4-7 1-2-3v-8z" fill="#330604"/>
<path transform="translate(1586,488)" d="m0 0 1 3v8l3 2-1 4-7-1-6-1v-2h2l2-5 4-7z" fill="#F8FEFE"/>
<path transform="translate(482,397)" d="m0 0h6l4 9 3 11-1 4-6-12-8-10z" fill="#F6FEFE"/>
<path transform="translate(818,453)" d="m0 0h10l6 4-1 2-17 1-1 3v-4h2v-5z" fill="#FEFEFE"/>
<path transform="translate(1620,286)" d="m0 0 6 2v5l2 1-2 4h-6l-2-2v-9z" fill="#FDFEFE"/>
<path transform="translate(1505,450)" d="m0 0 3 3 8 14 7 9 9 10 5 6-4-2-12-12-8-11-3-5v-2h-2l-3-8z" fill="#F8FEFE"/>
<path transform="translate(1574,465)" d="m0 0h8l2 1 1 4-3 4h-5v-3l-4-1z" fill="#FDFEFE"/>
<path transform="translate(1594,462)" d="m0 0 9 2 11 2 21 1v1l-6 1h-13l-17-3-5-2z" fill="#F9FEFE"/>
<path transform="translate(1598,281)" d="m0 0 2 1v12l-2 5-3-1v-11z" fill="#2F0603"/>
<path transform="translate(1576,461)" d="m0 0 7 1 3 4-1 3-1-3h-10v4l3 1-1 4h-2l-3-5 1-5z" fill="#F8FEFE"/>
<path transform="translate(1667,481)" d="m0 0h6l1 1v5h-2l2 9v5l-2 2-3-1h2l-1-19-5 2z" fill="#FDFEFE"/>
<path transform="translate(619,870)" d="m0 0h26v8l-5-2-1-5h-20z" fill="#F6FFFF"/>
<path transform="translate(1651,482)" d="m0 0 3 1v21h-3l1-1v-13l-3 6h-1l1-11z" fill="#FEFEFE"/>
<path transform="translate(836,868)" d="m0 0h2v10l-2 1v-2h-2l-4-6v-2z" fill="#F6FEFE"/>
<path transform="translate(1050,542)" d="m0 0 5 1 1 7-3 1-5-4v-4z" fill="#F6FEFE"/>
<path transform="translate(1248,541)" d="m0 0 3 1v10l-5-3-2-3v-4z" fill="#F6FEFE"/>
<path transform="translate(351,1021)" d="m0 0h10l2 1v7l-4-1-3-3v-3h-5z" fill="#F6FFFF"/>
<path transform="translate(1771,542)" d="m0 0h6v7l-4 1-3-4z" fill="#F6FFFF"/>
<path transform="translate(1611,484)" d="m0 0h1v8l1 4-2 6h-1l-1-6-1 8h-1v-10l1-3h2z" fill="#FE1B0D"/>
<path transform="translate(784,540)" d="m0 0 6 1 6 5-1 2-9-3-2-2z" fill="#F6FEFE"/>
<path transform="translate(1562,438)" d="m0 0 5 5 11 9 5 4-5-1-9-7-7-7z" fill="#F8FEFE"/>
<path transform="translate(421,869)" d="m0 0h7v9l-6-4z" fill="#F6FFFF"/>
<path transform="translate(1551,313)" d="m0 0h4v8l-3 2h-6l1-2h2z" fill="#F6FEFE"/>
<path transform="translate(1595,485)" d="m0 0 4 1-1 8-4 2-1-6z" fill="#FEFEFE"/>
<path transform="translate(1699,307)" d="m0 0 3 1 2 4v5h-3l-2-7-2-1z" fill="#FDFEFE"/>
<path transform="translate(1454,542)" d="m0 0 5 1v7l-5-2-1-5z" fill="#F6FFFF"/>
<path transform="translate(546,629)" d="m0 0 2 2 3 12-1 4-3-5-1-9z" fill="#F7FEFE"/>
<path transform="translate(502,451)" d="m0 0 2 3 2 9v4h-2l-2-4z" fill="#F6FEFE"/>
<path transform="translate(391,1021)" d="m0 0h5v15h-1v-9l-3-1z" fill="#F6FFFF"/>
<path transform="translate(1540,289)" d="m0 0 5 2-1 5-3 1-1-5-3-1z" fill="#F7FEFE"/>
<path transform="translate(1549,307)" d="m0 0h5l1 6-2 3v-3l-3 1z" fill="#FDFEFE"/>
<path transform="translate(1674,483)" d="m0 0h1v17l-2-4-1-9h2z" fill="#FE1B0D"/>
<path transform="translate(1640,292)" d="m0 0 1 2 3 1-1 5-3 2-1-5z" fill="#FAFEFE"/>
<path transform="translate(1571,470)" d="m0 0 3 3-1 3h-2l-3 3-1-3z" fill="#EC190C"/>
<path transform="translate(1608,495)" d="m0 0 2 1 2 4-1 5-2 2-1-2z" fill="#FEFEFE"/>
<path transform="translate(1586,295)" d="m0 0 1 3 8 2v2h-9z" fill="#FEFEFE"/>
</svg>
